HIERARCHY
ROOT RightShoulder
{
	OFFSET -1.644901 -0.003980 3.801207
	CHANNELS 6 Xposition Yposition Zposition Xrotation Yrotation Zrotation
	JOINT RightElbow
	{
		OFFSET -2.454748 0.000000 0.000000
		CHANNELS 3 Xrotation Yrotation Zrotation
		JOINT RightWrist
		{
			OFFSET -2.035185 -0.001238 0.000000
			CHANNELS 3 Xrotation Yrotation Zrotation
			End Site
			{
				OFFSET -1.535909 0.000000 0.000000
			}
		}
	}
}
MOTION
Frames: 90
Frame Time: 0.050000
-1.644901 -0.003980 3.801207 17.075041 -79.075675 33.137646 -18.206004 -11.066680 43.949030 -3.112502 5.795083 11.298032 
-1.644901 -0.003980 3.801207 25.500023 -78.777244 44.867072 -18.206004 -11.066681 43.949033 -3.112502 5.795081 11.298033 
-1.644901 -0.003980 3.801207 29.670731 -77.825846 51.063690 -18.206002 -11.066681 43.949033 -3.112501 5.795085 11.298032 
-1.644901 -0.003980 3.801207 31.040546 -77.247834 53.976277 -18.206002 -11.066680 43.949030 -3.112502 5.795084 11.298034 
-1.644901 -0.003980 3.801207 32.819592 -77.046180 57.190683 -18.206001 -11.066681 43.949030 -3.112500 5.795083 11.298034 
-1.644901 -0.003980 3.801207 37.059507 -76.157866 63.104767 -18.206004 -11.066680 43.949030 -3.112502 5.795084 11.298033 
-1.644901 -0.003980 3.801207 42.854588 -74.464730 70.731144 -18.206002 -11.066681 43.949037 -3.112501 5.795083 11.298034 
-1.644901 -0.003980 3.801207 50.345359 -72.102619 79.874554 -18.206006 -11.066680 43.949026 -3.112501 5.795083 11.298032 
-1.644901 -0.003980 3.801207 52.239472 -69.107895 84.029413 -18.206006 -11.066683 43.949026 -3.112500 5.795084 11.298034 
-1.644901 -0.003980 3.801207 52.719471 -66.679742 86.738375 -18.206006 -11.066680 43.949026 -3.112500 5.795085 11.298032 
-1.644901 -0.003980 3.801207 52.858298 -64.994188 88.639723 50.319373 -24.926987 85.178627 10.385460 16.927541 35.809008 
-1.644901 -0.003980 3.801207 54.312315 -64.100226 90.426425 50.319376 -24.926991 85.178627 10.385457 16.927541 35.809008 
-1.644901 -0.003980 3.801207 52.757293 -63.120066 89.800780 50.319380 -24.926984 85.178627 10.385455 16.927540 35.809008 
-1.644901 -0.003980 3.801207 52.289784 -61.730587 90.489406 50.319380 -24.926989 85.178633 10.385458 16.927541 35.809005 
-1.644901 -0.003980 3.801207 53.106381 -60.805909 91.795980 50.319383 -24.926989 85.178633 10.385456 16.927540 35.809005 
-1.644901 -0.003980 3.801207 54.855933 -62.299945 92.640410 50.319380 -24.926991 85.178633 10.385457 16.927540 35.809008 
-1.644901 -0.003980 3.801207 56.267495 -62.753463 93.056628 50.319380 -24.926985 85.178633 10.385458 16.927538 35.809005 
-1.644901 -0.003980 3.801207 57.015424 -62.529999 93.166150 50.319383 -24.926989 85.178633 10.385458 16.927538 35.809008 
-1.644901 -0.003980 3.801207 58.100034 -63.083053 93.212862 50.319373 -24.926987 85.178633 10.385459 16.927540 35.809005 
-1.644901 -0.003980 3.801207 59.080201 -63.740357 92.636162 50.319376 -24.926984 85.178633 10.385456 16.927541 35.809005 
-1.644901 -0.003980 3.801207 59.963071 -64.300822 92.108762 50.319376 -24.926985 85.178633 10.385457 16.927541 35.809005 
-1.644901 -0.003980 3.801207 60.487411 -64.572602 91.542751 50.319383 -24.926987 85.178633 10.385456 16.927538 35.809005 
-1.644901 -0.003980 3.801207 62.123528 -65.149473 91.923514 50.319380 -24.926984 85.178633 10.385459 16.927541 35.809005 
-1.644901 -0.003980 3.801207 63.192050 -65.690464 91.931054 50.319376 -24.926987 85.178633 10.385458 16.927541 35.809005 
-1.644901 -0.003980 3.801207 64.156561 -66.294226 91.858763 50.319376 -24.926987 85.178633 10.385460 16.927541 35.809008 
-1.644901 -0.003980 3.801207 64.324160 -66.763760 91.148601 50.319383 -24.926987 85.178633 10.385458 16.927543 35.809005 
-1.644901 -0.003980 3.801207 65.542919 -68.018903 91.259763 50.319376 -24.926991 85.178633 10.385458 16.927541 35.809005 
-1.644901 -0.003980 3.801207 66.255321 -69.392980 90.866105 50.319383 -24.926985 85.178633 10.385458 16.927541 35.809005 
-1.644901 -0.003980 3.801207 66.665180 -69.775088 91.004915 50.319376 -24.926987 85.178633 10.385458 16.927540 35.809005 
-1.644901 -0.003980 3.801207 63.975124 -67.611763 89.515086 50.319380 -24.926984 85.178633 10.385458 16.927541 35.809008 
-1.644901 -0.003980 3.801207 62.874118 -68.222757 88.887003 50.319376 -24.926991 85.178633 10.385458 16.927538 35.809005 
-1.644901 -0.003980 3.801207 61.818198 -67.724952 88.043932 50.319380 -24.926989 85.178633 10.385460 16.927538 35.809005 
-1.644901 -0.003980 3.801207 60.896505 -66.539607 87.558934 50.319383 -24.926984 85.178633 10.385458 16.927540 35.809005 
-1.644901 -0.003980 3.801207 60.556027 -66.720218 87.650445 50.319376 -24.926987 85.178633 10.385459 16.927536 35.809008 
-1.644901 -0.003980 3.801207 60.501133 -66.927931 87.390659 50.319376 -24.926989 85.178633 10.385457 16.927541 35.809008 
-1.644901 -0.003980 3.801207 59.563778 -66.972778 86.805707 50.319376 -24.926989 85.178633 10.385459 16.927543 35.809005 
-1.644901 -0.003980 3.801207 59.725920 -67.607186 86.563857 50.319383 -24.926987 85.178633 10.385457 16.927541 35.809008 
-1.644901 -0.003980 3.801207 58.112267 -67.830581 85.344354 50.319376 -24.926989 85.178633 10.385459 16.927541 35.809008 
-1.644901 -0.003980 3.801207 58.743500 -68.203059 85.651064 50.319383 -24.926985 85.178633 10.385459 16.927538 35.809008 
-1.644901 -0.003980 3.801207 58.725639 -69.113284 85.259257 50.319380 -24.926985 85.178633 10.385458 16.927540 35.809005 
-1.644901 -0.003980 3.801207 58.627530 -69.645240 83.988063 50.319380 -24.926987 85.178633 10.385459 16.927541 35.809008 
-1.644901 -0.003980 3.801207 56.940709 -69.863000 81.324836 50.319380 -24.926985 85.178633 10.385457 16.927545 35.809005 
-1.644901 -0.003980 3.801207 57.031745 -70.591993 80.445517 50.319376 -24.926991 85.178633 10.385459 16.927536 35.809002 
-1.644901 -0.003980 3.801207 57.940768 -72.124844 80.385022 50.319376 -24.926989 85.178633 10.385458 16.927541 35.809005 
-1.644901 -0.003980 3.801207 59.101641 -73.348589 80.687258 50.319383 -24.926985 85.178633 10.385458 16.927541 35.809008 
-1.644901 -0.003980 3.801207 58.627366 -73.795536 79.733081 50.319376 -24.926987 85.178633 10.385458 16.927538 35.809008 
-1.644901 -0.003980 3.801207 58.367791 -73.657839 79.253649 50.319380 -24.926989 85.178633 10.385459 16.927541 35.809005 
-1.644901 -0.003980 3.801207 58.398445 -73.228541 79.571103 50.319376 -24.926989 85.178633 10.385458 16.927540 35.809008 
-1.644901 -0.003980 3.801207 58.890970 -73.659103 79.982704 47.518664 -25.377460 87.616396 1.618795 -18.012660 -32.532826 
-1.644901 -0.003980 3.801207 60.046235 -74.325948 81.109760 47.518661 -25.377460 87.616396 1.618793 -18.012660 -32.532830 
-1.644901 -0.003980 3.801207 60.957792 -75.585728 81.705749 47.518661 -25.377464 87.616396 1.618795 -18.012660 -32.532826 
-1.644901 -0.003980 3.801207 60.305659 -76.440240 80.873586 47.518668 -25.377465 87.616396 1.618793 -18.012660 -32.532826 
-1.644901 -0.003980 3.801207 60.210419 -76.538109 80.872875 47.518664 -25.377462 87.616396 1.618792 -18.012664 -32.532826 
-1.644901 -0.003980 3.801207 59.657072 -75.835672 80.530779 47.518664 -25.377464 87.616396 1.618794 -18.012660 -32.532826 
-1.644901 -0.003980 3.801207 58.681994 -75.353297 79.668303 47.518661 -25.377464 87.616396 1.618794 -18.012664 -32.532826 
-1.644901 -0.003980 3.801207 57.591534 -75.099569 78.586668 47.518668 -25.377465 87.616389 1.618793 -18.012662 -32.532826 
-1.644901 -0.003980 3.801207 57.114930 -74.971257 78.126081 47.518668 -25.377464 87.616396 1.618793 -18.012662 -32.532826 
-1.644901 -0.003980 3.801207 56.848843 -74.728840 77.912644 47.518664 -25.377460 87.616396 1.618793 -18.012662 -32.532826 
-1.644901 -0.003980 3.801207 56.675503 -74.319302 77.914106 50.319376 -24.926987 85.178633 10.385458 16.927543 35.809008 
-1.644901 -0.003980 3.801207 56.265930 -74.114506 77.689509 50.319376 -24.926987 85.178633 10.385459 16.927545 35.809008 
-1.644901 -0.003980 3.801207 56.219413 -73.582454 77.932452 50.319376 -24.926987 85.178633 10.385458 16.927541 35.809005 
-1.644901 -0.003980 3.801207 56.048502 -73.064173 78.124257 50.319376 -24.926985 85.178633 10.385458 16.927541 35.809005 
-1.644901 -0.003980 3.801207 56.021847 -73.057670 78.204020 50.319376 -24.926989 85.178633 10.385459 16.927538 35.809008 
-1.644901 -0.003980 3.801207 55.285122 -73.369482 77.331238 50.319376 -24.926987 85.178633 10.385460 16.927541 35.809008 
-1.644901 -0.003980 3.801207 54.707432 -73.256634 76.637714 50.319376 -24.926985 85.178633 10.385459 16.927538 35.809005 
-1.644901 -0.003980 3.801207 54.097062 -73.161728 76.098389 50.319376 -24.926989 85.178633 10.385460 16.927540 35.809005 
-1.644901 -0.003980 3.801207 54.364484 -73.166038 76.285024 50.319376 -24.926984 85.178633 10.385459 16.927538 35.809008 
-1.644901 -0.003980 3.801207 54.955770 -73.840396 76.812683 50.319376 -24.926991 85.178633 10.385458 16.927540 35.809005 
-1.644901 -0.003980 3.801207 55.606701 -73.867786 77.513071 50.319376 -24.926989 85.178633 10.385458 16.927541 35.809008 
-1.644901 -0.003980 3.801207 56.397422 -73.681294 78.523502 50.319376 -24.926989 85.178633 10.385458 16.927541 35.809008 
-1.644901 -0.003980 3.801207 57.319672 -73.284481 79.851783 50.319380 -24.926987 85.178633 10.385459 16.927541 35.809005 
-1.644901 -0.003980 3.801207 58.018052 -73.024209 80.714709 50.319376 -24.926989 85.178633 10.385459 16.927538 35.809008 
-1.644901 -0.003980 3.801207 58.054429 -72.559982 81.040058 50.319380 -24.926989 85.178633 10.385459 16.927541 35.809008 
-1.644901 -0.003980 3.801207 58.023393 -72.320352 81.125183 50.319376 -24.926985 85.178633 10.385460 16.927543 35.809008 
-1.644901 -0.003980 3.801207 57.726546 -72.282061 81.053124 50.319380 -24.926989 85.178633 10.385458 16.927538 35.809005 
-1.644901 -0.003980 3.801207 58.208703 -72.732471 81.485325 50.319376 -24.926987 85.178633 10.385458 16.927540 35.809008 
-1.644901 -0.003980 3.801207 58.357853 -72.951584 81.712299 50.319383 -24.926985 85.178633 10.385459 16.927538 35.809008 
-1.644901 -0.003980 3.801207 58.792568 -73.008111 82.259930 50.319376 -24.926987 85.178633 10.385459 16.927534 35.809008 
-1.644901 -0.003980 3.801207 59.040066 -72.850565 82.765097 50.319376 -24.926987 85.178633 10.385458 16.927538 35.809008 
-1.644901 -0.003980 3.801207 59.526868 -72.945164 83.268168 50.319380 -24.926987 85.178633 10.385457 16.927541 35.809005 
-1.644901 -0.003980 3.801207 59.509840 -73.264420 83.164807 50.319376 -24.926987 85.178633 10.385458 16.927540 35.809008 
-1.644901 -0.003980 3.801207 59.340629 -73.642997 82.770124 50.319380 -24.926991 85.178633 10.385457 16.927541 35.809005 
-1.644901 -0.003980 3.801207 58.714540 -73.859562 82.093000 50.319376 -24.926987 85.178633 10.385457 16.927541 35.809008 
-1.644901 -0.003980 3.801207 58.009787 -74.336459 81.351262 50.319380 -24.926989 85.178633 10.385457 16.927541 35.809008 
-1.644901 -0.003980 3.801207 57.738171 -74.693842 81.037189 50.319376 -24.926991 85.178633 10.385459 16.927536 35.809005 
-1.644901 -0.003980 3.801207 56.994476 -75.008181 80.254859 50.319380 -24.926991 85.178633 10.385456 16.927540 35.809008 
-1.644901 -0.003980 3.801207 55.409968 -75.764140 78.389958 50.319380 -24.926987 85.178633 10.385458 16.927533 35.809005 
-1.644901 -0.003980 3.801207 54.350728 -76.274382 77.054677 50.319383 -24.926987 85.178633 10.385458 16.927536 35.809005 
-1.644901 -0.003980 3.801207 53.472779 -76.046315 76.208833 50.319376 -24.926989 85.178633 10.385459 16.927538 35.809005 
-1.644901 -0.003980 3.801207 52.668644 -75.876476 75.526770 50.319380 -24.926985 85.178633 10.385459 16.927536 35.809005 
